<svg width="257" height="57" viewBox="0 0 257 57" fill="none" xmlns="http://www.w3.org/2000/svg">
<g clip-path="url(#clip0)">
<path d="M79.4643 12.8959C78.8668 12.4661 78.0986 12.2081 77.1598 12.2081C75.7941 12.2081 74.7698 13.1538 74.7698 14.7873V22.3529C74.7698 27.3394 84.5002 25.9638 84.5002 34.3891V42.2986C84.5002 46.4253 81.3421 48.8326 77.1598 48.8326C74.5138 48.8326 71.7825 47.9728 70.6729 47.2851L69.8193 46.7692V37.0543H74.7698V44.1041C75.3673 44.5339 76.2209 44.7918 77.1598 44.7918C78.5254 44.7918 79.635 43.7602 79.635 42.2127V34.3032C79.635 29.3167 69.9047 30.6923 69.9047 22.267V14.7014C69.9047 10.6606 73.0628 8.16742 77.2451 8.16742C79.8911 8.16742 82.6224 9.02715 83.6466 9.71493L84.5002 10.2308V19.8597H79.5497V12.8959H79.4643Z" fill="white"/>
<path d="M87.7436 12.4661V8.51132H94.9133V12.552H93.8037V44.5339H94.9133V48.5747H87.7436V44.5339H88.8532V12.4661H87.7436Z" fill="white"/>
<path d="M97.8153 12.4661V8.51132H106.009C110.277 8.51132 113.35 11.0045 113.35 15.1312V22.095C113.35 24.8462 112.155 26.8235 109.679 27.8552C112.24 28.9729 113.52 30.8643 113.52 33.7014V41.7828C113.52 45.9095 110.362 48.4027 106.18 48.4027H97.73V44.362H98.8396V12.4661H97.8153ZM103.875 25.8778H106.009C107.375 25.8778 108.485 24.8462 108.485 23.2987V15.0453C108.485 13.4118 107.46 12.3801 106.009 12.3801H103.875V25.8778ZM103.875 29.9186V44.5339H106.265C107.631 44.5339 108.741 43.5023 108.741 41.8688V32.4977C108.741 30.9502 107.631 29.9186 106.265 29.9186H103.875Z" fill="white"/>
<path d="M127.177 19.9457V12.552H122.739V26.1358H130.164V30.1765H122.739V44.6199H127.177V37.2263H131.359V48.6606H116.679V44.6199H117.788V12.4661H116.679V8.51132H131.359V19.9457H127.177Z" fill="white"/>
<path d="M144.675 12.8959C144.077 12.4661 143.309 12.2081 142.37 12.2081C141.09 12.2081 140.065 13.1538 140.065 14.7014V42.2986C140.065 43.8462 141.004 44.7919 142.37 44.7919C143.736 44.7919 144.76 43.8462 144.76 42.2986V37.0543H149.625V42.2986C149.625 46.3394 146.467 48.7466 142.37 48.7466C138.188 48.7466 135.2 46.3394 135.2 42.2986V14.7014C135.2 10.6606 138.273 8.16742 142.37 8.16742C145.016 8.16742 147.747 9.02715 148.857 9.71493L149.625 10.2308V19.8597H144.675V12.8959Z" fill="white"/>
<path d="M168.147 42.2127C168.147 46.3394 164.989 48.7466 160.806 48.7466C156.624 48.7466 153.466 46.2534 153.466 42.2127V14.7873C153.466 10.6606 156.624 8.16742 160.806 8.16742C164.989 8.16742 168.147 10.6606 168.147 14.7873V42.2127ZM158.416 42.2127C158.416 43.8462 159.441 44.7919 160.806 44.7919C162.257 44.7919 163.282 43.8462 163.282 42.2127V14.7873C163.282 13.1538 162.257 12.1222 160.806 12.1222C159.441 12.1222 158.416 13.1538 158.416 14.7873V42.2127Z" fill="white"/>
<path d="M177.194 48.4887V44.448H178.304V12.4661H175.316V19.8597H171.134V8.51132H190.339V19.9457H186.156V12.552H183.169V44.5339H184.279V48.5747H177.194V48.4887Z" fill="white"/>
<path d="M203.483 19.9457V12.552H199.045V26.1358H206.471V30.1765H199.045V44.6199H203.483V37.2263H207.666V48.6606H192.985V44.6199H194.094V12.4661H192.985V8.51132H207.666V19.9457H203.483Z" fill="white"/>
<path d="M210.994 12.4661V8.51132H219.188C223.456 8.51132 226.529 11.0045 226.529 15.1312V25.1041C226.529 27.7692 225.419 29.5747 223.115 30.6063L226.699 44.5339H227.98V48.5747H222.432L219.018 31.81H216.884V44.5339H217.993V48.5747H210.824V44.5339H211.933V12.4661H210.994ZM217.054 27.7692H219.188C220.639 27.7692 221.664 26.7376 221.664 25.1041V15.1312C221.664 13.4977 220.639 12.4661 219.188 12.4661H217.054V27.7692Z" fill="white"/>
<path d="M230.199 48.4887V44.448H231.309V12.4661H230.199V8.51132H238.564L243.599 41.095H243.685L248.721 8.51132H257.085V12.552H255.976V44.5339H257.085V48.5747H251.281V16.7647H251.196L246.501 48.5747H240.954L236.259 16.7647H236.174V44.6199H237.283V48.6606H230.199V48.4887Z" fill="white"/>
<path d="M16.8147 54.5927C16.8147 54.5927 27.4839 59.5792 36.2753 55.1086C41.994 52.1855 46.0056 44.4479 40.6283 35.0769C40.6283 35.0769 40.7137 38.6018 35.3364 40.8371C30.0445 42.9864 26.8864 45.9955 27.3132 52.4434C27.3132 52.4434 37.2142 51.2398 40.2869 41.5249C40.3723 41.5249 38.9213 58.2036 16.8147 54.5927Z" fill="#80C721"/>
<path d="M44.896 51.3258C44.896 51.3258 54.541 44.5339 55.0531 34.647C55.3945 28.1991 50.7854 20.8914 40.0309 20.8054C40.0309 20.8054 43.1036 22.4389 42.3354 28.2851C41.5672 34.0452 42.5915 38.3439 48.3102 41.095C48.3102 41.095 52.2365 31.8099 45.4935 24.3303C45.4082 24.3303 59.0648 33.8733 44.896 51.3258Z" fill="#80C721"/>
<path d="M56.1627 25.276C56.1627 25.276 55.1385 13.4117 46.8592 8.08142C41.4819 4.55653 32.8612 4.90043 27.3985 14.2715C27.3985 14.2715 30.3859 12.3801 34.995 15.9909C39.5188 19.5158 43.7011 20.8054 48.993 17.1945C48.993 17.1945 42.9329 9.1131 33.1172 11.2624C33.2026 11.2624 48.2248 4.12667 56.1627 25.276Z" fill="#80C721"/>
<path d="M39.3481 2.40722C39.3481 2.40722 28.6789 -2.5792 19.8874 1.89138C14.1687 4.81446 10.1571 12.552 15.5344 21.9231C15.5344 21.9231 15.449 18.3982 20.8263 16.1629C26.1182 14.0136 29.3617 10.9185 28.8496 4.55654C28.8496 4.55654 18.9485 5.76016 15.8758 15.4751C15.7904 15.4751 17.2415 -1.20364 39.3481 2.40722Z" fill="#80C721"/>
<path d="M11.2667 5.58823C11.2667 5.58823 1.62171 12.3801 1.10959 22.267C0.768176 28.7149 5.37727 36.0226 16.1318 36.1086C16.1318 36.1086 13.0591 34.4751 13.8273 28.6289C14.5955 22.8688 13.5712 18.5701 7.85253 15.819C7.85253 15.819 3.92626 25.1041 10.6692 32.5837C10.7546 32.6697 -2.90203 23.1267 11.2667 5.58823Z" fill="#80C721"/>
<path d="M0 31.724C0 31.724 1.02424 43.5882 9.30355 48.9185C14.6808 52.4434 23.3016 52.0995 28.7642 42.7285C28.7642 42.7285 25.7768 44.6199 21.1677 41.009C16.644 37.4841 12.4616 36.1946 7.16971 39.8054C7.16971 39.8054 13.2298 47.8869 23.0455 45.7375C22.9601 45.7375 7.93789 52.8733 0 31.724Z" fill="#80C721"/>
</g>
<defs>
<clipPath id="clip0">
<rect width="257" height="57" fill="white"/>
</clipPath>
</defs>
</svg>
