<svg width="134" height="134" viewBox="0 0 134 134" fill="none" xmlns="http://www.w3.org/2000/svg">
<g filter="url(#filter0_d)">
<g clip-path="url(#clip0)">
<path d="M30.0312 70.9832C30.5652 70.9832 31.0897 70.7681 31.4674 70.3904C31.8451 70.0104 32.0625 69.4883 32.0625 68.9519C32.0625 68.4179 31.8451 67.8934 31.4674 67.5157C31.0897 67.1381 30.5652 66.9207 30.0312 66.9207C29.4973 66.9207 28.9728 67.1381 28.5951 67.5157C28.2174 67.8934 28 68.4179 28 68.9519C28 69.4883 28.2174 70.012 28.5951 70.3904C28.9728 70.7681 29.4973 70.9832 30.0312 70.9832Z" fill="#80C721"/>
<path d="M117.952 42.8781L99.3873 32.6148C98.4058 32.0712 97.1696 32.4283 96.6269 33.4098C96.0842 34.3913 96.4404 35.6275 97.4219 36.1702L114.938 45.8536V114.937H106V51.1555C106 50.0335 105.091 49.1242 103.969 49.1242H30.0312C28.9093 49.1242 28 50.0335 28 51.1555V60.8269C28 61.9489 28.9093 62.8582 30.0312 62.8582C31.1532 62.8582 32.0625 61.9489 32.0625 60.8269V53.1867H101.938V114.937H93.4324V94.6242C93.4324 92.3843 91.6099 90.5617 89.3699 90.5617H81.2449V70.2492C81.2449 68.0093 79.4224 66.1867 77.1824 66.1867H56.8699C54.6292 66.1867 52.8074 68.0093 52.8074 70.2492V90.5617H44.6562C42.4163 90.5617 40.5938 92.3843 40.5938 94.6242V114.937H32.0625V77.0769C32.0625 75.955 31.1532 75.0457 30.0312 75.0457C28.9093 75.0457 28 75.955 28 77.0769V114.937H19.0625V45.8536L67 19.3513L83.2 28.3079C84.1815 28.8506 85.4177 28.4943 85.9604 27.5128C86.5032 26.5313 86.1469 25.2951 85.1654 24.7524L67.9831 15.2531C67.3713 14.9143 66.6287 14.9143 66.0169 15.2531L16.0482 42.8781C15.4015 43.2352 15 43.916 15 44.6555V116.968C15 118.09 15.9093 118.999 17.0312 118.999H116.969C118.091 118.999 119 118.09 119 116.968V44.6555C119 43.916 118.599 43.2352 117.952 42.8781ZM77.1824 94.6242H81.2449V98.6867H77.1824V94.6242ZM69.0312 70.2492V74.3117H64.9688V70.2492H69.0312ZM56.8699 70.2492H60.9062V76.343C60.9062 77.4649 61.8156 78.3742 62.9375 78.3742H71.0625C72.1844 78.3742 73.0938 77.4649 73.0938 76.343V70.2492H77.1824L77.1848 90.5617C77.1848 90.5617 77.184 90.5617 77.1824 90.5617H56.8699V70.2492ZM56.8699 94.6242V98.6867H52.8074V94.6242H56.8699ZM44.6562 114.937V94.6242H48.7449V100.718C48.7449 101.84 49.6542 102.749 50.7762 102.749H58.9012C60.0223 102.749 60.9324 101.84 60.9324 100.718V94.6242H64.9688L64.9711 114.937C64.9711 114.937 64.9703 114.937 64.9688 114.937H44.6562ZM69.0574 114.937V94.6242H73.1199V100.718C73.1199 101.84 74.0292 102.749 75.1512 102.749H83.2762C84.3973 102.749 85.3074 101.84 85.3074 100.718V94.6242H89.3699L89.3723 114.937C89.3723 114.937 89.3715 114.937 89.3699 114.937H69.0574Z" fill="#80C721"/>
<path d="M91.2941 32.4934C91.8281 32.4934 92.3517 32.276 92.7302 31.8983C93.1079 31.5198 93.3253 30.9962 93.3253 30.4622C93.3253 29.9274 93.1079 29.4037 92.7302 29.026C92.3517 28.6483 91.8281 28.4309 91.2941 28.4309C90.7593 28.4309 90.2356 28.6483 89.8579 29.026C89.4802 29.4037 89.2628 29.9274 89.2628 30.4622C89.2628 30.9962 89.4802 31.5198 89.8579 31.8983C90.2356 32.276 90.7593 32.4934 91.2941 32.4934Z" fill="#80C721"/>
<path d="M58.4688 35.7188C58.4688 40.4232 62.2956 44.25 67 44.25C71.7044 44.25 75.5312 40.4232 75.5312 35.7188C75.5312 31.0143 71.7044 27.1875 67 27.1875C62.2956 27.1875 58.4688 31.0143 58.4688 35.7188ZM71.4688 35.7188C71.4688 38.1824 69.4645 40.1875 67 40.1875C64.5355 40.1875 62.5312 38.1824 62.5312 35.7188C62.5312 33.2543 64.5355 31.25 67 31.25C69.4645 31.25 71.4688 33.2543 71.4688 35.7188Z" fill="#80C721"/>
</g>
</g>
<defs>
<filter id="filter0_d" x="0" y="0" width="134" height="134" filterUnits="userSpaceOnUse" color-interpolation-filters="sRGB">
<feFlood flood-opacity="0" result="BackgroundImageFix"/>
<feColorMatrix in="SourceAlpha" type="matrix" values="0 0 0 0 0 0 0 0 0 0 0 0 0 0 0 0 0 0 127 0"/>
<feOffset/>
<feGaussianBlur stdDeviation="7.5"/>
<feColorMatrix type="matrix" values="0 0 0 0 0.501961 0 0 0 0 0.780392 0 0 0 0 0.129412 0 0 0 0.19 0"/>
<feBlend mode="normal" in2="BackgroundImageFix" result="effect1_dropShadow"/>
<feBlend mode="normal" in="SourceGraphic" in2="effect1_dropShadow" result="shape"/>
</filter>
<clipPath id="clip0">
<rect x="15" y="15" width="104" height="104" fill="white"/>
</clipPath>
</defs>
</svg>
