<svg width="116" height="134" viewBox="0 0 116 134" fill="none" xmlns="http://www.w3.org/2000/svg">
<g filter="url(#filter0_d)">
<path d="M78.3125 102.141C77.1913 102.141 76.2812 103.051 76.2812 104.172C76.2812 105.293 77.1913 106.203 78.3125 106.203C79.4337 106.203 80.3438 105.293 80.3438 104.172C80.3438 103.051 79.4337 102.141 78.3125 102.141Z" fill="#80C721"/>
<path d="M37.6875 102.141C36.5663 102.141 35.6562 103.051 35.6562 104.172C35.6562 105.293 36.5663 106.203 37.6875 106.203C38.8087 106.203 39.7188 105.293 39.7188 104.172C39.7188 103.051 38.8087 102.141 37.6875 102.141Z" fill="#80C721"/>
<path d="M96.9279 91.6208C94.6413 88.0815 91.4992 85.2693 87.8183 83.4531C87.508 83.1649 87.1088 82.9717 86.665 82.9224C84.0026 81.7922 81.1963 81.2188 78.3125 81.2188H72.2188V75.8597C75.7452 72.834 78.2804 68.8263 79.5097 64.3594H80.3438C84.8239 64.3594 88.4688 60.7145 88.4688 56.2344C88.4688 54.1113 87.6493 52.1768 86.3112 50.7277C86.4389 50.6192 86.5636 50.5062 86.6835 50.3866C87.8348 49.2353 88.4688 47.7052 88.4688 46.0781C88.4688 43.4044 86.7369 41.1288 84.3366 40.3102C83.6189 30.9697 77.0635 22.9877 68.0376 20.486C67.5028 17.6926 65.1975 15 62.0625 15H53.9375C50.8025 15 48.4972 17.6926 47.9624 20.486C38.9373 22.9875 32.3825 30.9681 31.6636 40.3073C30.7898 40.6037 29.9885 41.0979 29.3165 41.7696C28.1652 42.921 27.5312 44.4511 27.5312 46.0781C27.5312 47.9394 28.371 49.6074 29.6905 50.726C28.3515 52.1751 27.5312 54.1105 27.5312 56.2344C27.5312 60.7145 31.1761 64.3594 35.6562 64.3594H36.4846C37.5108 68.0881 39.4565 71.5114 42.1709 74.3391C42.6809 74.8709 43.2216 75.3775 43.7812 75.8581V81.2188H37.6875C34.8035 81.2188 31.9972 81.7922 29.335 82.9221C28.8914 82.9717 28.492 83.1647 28.1819 83.4529C24.5006 85.2693 21.3587 88.0815 19.0721 91.6206C16.633 95.3961 15.3438 99.7362 15.3438 104.172V116.969C15.3438 118.09 16.2531 119 17.375 119H98.625C99.7469 119 100.656 118.09 100.656 116.969V104.172C100.656 99.7362 99.367 95.3961 96.9279 91.6208ZM27.5312 114.938H19.4062V104.172C19.4062 97.9934 22.5713 92.0715 27.5312 88.556V114.938ZM80.3438 60.2969H80.2511C80.3117 59.6211 80.3438 58.9428 80.3438 58.2656V52.1719C82.5838 52.1719 84.4062 53.9943 84.4062 56.2344C84.4062 58.4744 82.5838 60.2969 80.3438 60.2969ZM47.8438 24.7782V33.8906C47.8438 35.0125 48.7531 35.9219 49.875 35.9219C50.9969 35.9219 51.9062 35.0125 51.9062 33.8906V22.1222C51.9062 22.1169 51.9062 22.1116 51.9062 22.1063V21.7031C51.9062 20.4446 52.9694 19.0625 53.9375 19.0625H62.0625C63.0306 19.0625 64.0938 20.4446 64.0938 21.7031V22.1063C64.0938 22.1116 64.0938 22.1169 64.0938 22.1222V33.8906C64.0938 35.0125 65.0031 35.9219 66.125 35.9219C67.2469 35.9219 68.1562 35.0125 68.1562 33.8906V24.7782C74.7152 27.0993 79.45 33.0347 80.2302 39.9844H35.7698C36.55 33.0347 41.2848 27.0993 47.8438 24.7782ZM35.6562 60.2969C33.4162 60.2969 31.5938 58.4744 31.5938 56.2344C31.5938 53.9943 33.4162 52.1719 35.6562 52.1719V58.2656C35.6562 58.9428 35.6883 59.6213 35.7489 60.2969H35.6562ZM35.6562 48.1094H33.625C32.505 48.1094 31.5938 47.1982 31.5938 46.0781C31.5938 45.5362 31.8052 45.0261 32.1891 44.6424C32.5732 44.2583 33.0831 44.0469 33.625 44.0469H82.375C83.495 44.0469 84.4062 44.9581 84.4062 46.0781C84.4062 46.6201 84.1948 47.1301 83.8109 47.5138C83.427 47.8979 82.9169 48.1094 82.375 48.1094H80.3438H78.3125H37.6875H35.6562ZM40.0878 61.959C40.0838 61.9369 40.0799 61.915 40.075 61.8932C39.8392 60.7011 39.7188 59.4809 39.7188 58.2656V52.1719H76.2812V58.2656C76.2812 59.4799 76.1608 60.6993 75.925 61.8924C75.9201 61.9144 75.9162 61.9365 75.9122 61.9586C75.0044 66.4897 72.4922 70.5457 68.8339 73.3826C65.6558 75.8514 61.9095 77.1562 58 77.1562C54.0905 77.1562 50.3442 75.8514 47.1631 73.3804C46.4349 72.8169 45.7418 72.1935 45.1024 71.5266C42.54 68.8572 40.8069 65.5501 40.0878 61.959ZM55.9688 114.938H39.7188V110.266C39.7188 109.144 38.8094 108.234 37.6875 108.234C36.5656 108.234 35.6562 109.144 35.6562 110.266V114.938H31.5938V86.3932C32.912 85.8961 34.2701 85.5648 35.6562 85.4015V98.0781C35.6562 99.2 36.5656 100.109 37.6875 100.109C38.8094 100.109 39.7188 99.2 39.7188 98.0781V85.2812H44.9421L55.9688 96.8594V114.938ZM47.8438 82.4375V78.6541C50.9782 80.339 54.4305 81.2188 58 81.2188C61.5697 81.2188 65.0222 80.3388 68.1562 78.6543V82.4375L58 93.1016L47.8438 82.4375ZM84.4062 114.938H80.3438V110.266C80.3438 109.144 79.4344 108.234 78.3125 108.234C77.1906 108.234 76.2812 109.144 76.2812 110.266V114.938H60.0312V96.8594L71.0579 85.2812H76.2812V98.0781C76.2812 99.2 77.1906 100.109 78.3125 100.109C79.4344 100.109 80.3438 99.2 80.3438 98.0781V85.4015C81.7299 85.5648 83.0878 85.8963 84.4062 86.3934V114.938ZM96.5938 114.938H88.4688V88.5558C93.4287 92.0713 96.5938 97.9932 96.5938 104.172V114.938Z" fill="#80C721"/>
</g>
<defs>
<filter id="filter0_d" x="-9" y="0" width="134" height="134" filterUnits="userSpaceOnUse" color-interpolation-filters="sRGB">
<feFlood flood-opacity="0" result="BackgroundImageFix"/>
<feColorMatrix in="SourceAlpha" type="matrix" values="0 0 0 0 0 0 0 0 0 0 0 0 0 0 0 0 0 0 127 0"/>
<feOffset/>
<feGaussianBlur stdDeviation="7.5"/>
<feColorMatrix type="matrix" values="0 0 0 0 0.501961 0 0 0 0 0.780392 0 0 0 0 0.129412 0 0 0 0.19 0"/>
<feBlend mode="normal" in2="BackgroundImageFix" result="effect1_dropShadow"/>
<feBlend mode="normal" in="SourceGraphic" in2="effect1_dropShadow" result="shape"/>
</filter>
</defs>
</svg>
