<svg width="134" height="134" viewBox="0 0 134 134" fill="none" xmlns="http://www.w3.org/2000/svg">
<g filter="url(#filter0_d)">
<path d="M91.375 102.75C90.2538 102.75 89.3438 103.66 89.3438 104.781C89.3438 105.902 90.2538 106.812 91.375 106.812C92.4962 106.812 93.4062 105.902 93.4062 104.781C93.4062 103.66 92.4962 102.75 91.375 102.75Z" fill="#80C721"/>
<path d="M42.625 102.75C41.5038 102.75 40.5938 103.66 40.5938 104.781C40.5938 105.902 41.5038 106.812 42.625 106.812C43.7462 106.812 44.6562 105.902 44.6562 104.781C44.6562 103.66 43.7462 102.75 42.625 102.75Z" fill="#80C721"/>
<path d="M29.2188 98.6875C25.8587 98.6875 23.125 101.421 23.125 104.781C23.125 108.141 25.8587 110.875 29.2188 110.875C32.5788 110.875 35.3125 108.141 35.3125 104.781C35.3125 101.421 32.5788 98.6875 29.2188 98.6875ZM29.2188 106.812C28.0987 106.812 27.1875 105.901 27.1875 104.781C27.1875 103.661 28.0987 102.75 29.2188 102.75C30.3388 102.75 31.25 103.661 31.25 104.781C31.25 105.901 30.3388 106.812 29.2188 106.812Z" fill="#80C721"/>
<path d="M104.781 98.6875C101.421 98.6875 98.6875 101.421 98.6875 104.781C98.6875 108.141 101.421 110.875 104.781 110.875C108.141 110.875 110.875 108.141 110.875 104.781C110.875 101.421 108.141 98.6875 104.781 98.6875ZM104.781 106.812C103.661 106.812 102.75 105.901 102.75 104.781C102.75 103.661 103.661 102.75 104.781 102.75C105.901 102.75 106.812 103.661 106.812 104.781C106.812 105.901 105.901 106.812 104.781 106.812Z" fill="#80C721"/>
<path d="M67 38.5625C62.5199 38.5625 58.875 42.2074 58.875 46.6875C58.875 51.1676 62.5199 54.8125 67 54.8125C71.4801 54.8125 75.125 51.1676 75.125 46.6875C75.125 42.2074 71.4801 38.5625 67 38.5625ZM67 50.75C64.7599 50.75 62.9375 48.9276 62.9375 46.6875C62.9375 44.4474 64.7599 42.625 67 42.625C69.2401 42.625 71.0625 44.4474 71.0625 46.6875C71.0625 48.9276 69.2401 50.75 67 50.75Z" fill="#80C721"/>
<path d="M114.59 59.2256C113.419 58.0523 111.951 57.2833 110.355 56.9849L108.524 51.4912C109.953 50.3748 110.875 48.6373 110.875 46.6875C110.875 43.3274 108.141 40.5938 104.781 40.5938C102.133 40.5938 99.8754 42.2921 99.0369 44.6562H89.3438V42.625C89.3438 41.5033 88.4342 40.5938 87.3125 40.5938H81.9957C81.4328 39.19 80.6943 37.8969 79.7871 36.7269L82.4334 32.144C82.7028 31.6774 82.7759 31.1228 82.6364 30.6024C82.4968 30.082 82.1566 29.6384 81.69 29.3691L75.7116 25.9174L77.1288 17.3632C77.1319 17.3449 77.1325 17.3266 77.1351 17.3083C77.1402 17.2713 77.1449 17.2344 77.1479 17.1968C77.151 17.1604 77.1524 17.1243 77.1534 17.0879C77.154 17.0692 77.1562 17.0505 77.1562 17.0312C77.1562 17.0199 77.1546 17.0087 77.1546 16.9973C77.154 16.9567 77.1516 16.9165 77.1485 16.8765C77.1465 16.8486 77.1445 16.821 77.1412 16.7934C77.1367 16.7548 77.1305 16.7168 77.1237 16.6786C77.1187 16.6496 77.1138 16.6203 77.1073 16.5917C77.0996 16.5576 77.0904 16.5238 77.0813 16.4903C77.0726 16.4588 77.064 16.4274 77.0539 16.3967C77.0439 16.3668 77.0328 16.3376 77.0216 16.3083C77.009 16.2756 76.9966 16.2427 76.9826 16.2108C76.9706 16.1838 76.9572 16.1576 76.9442 16.1312C76.9281 16.0989 76.9123 16.0668 76.8946 16.0355C76.88 16.0097 76.8642 15.9847 76.8485 15.9596C76.83 15.9299 76.8115 15.9002 76.7916 15.8716C76.7734 15.8456 76.7539 15.8206 76.7346 15.7954C76.7149 15.7696 76.6954 15.7438 76.6742 15.7193C76.6519 15.6929 76.6279 15.6677 76.6044 15.6423C76.584 15.6208 76.5641 15.599 76.543 15.5783C76.5166 15.5525 76.4888 15.5281 76.461 15.5038C76.44 15.4855 76.4195 15.467 76.3978 15.4495C76.3685 15.426 76.3381 15.404 76.3074 15.3819C76.2846 15.3656 76.2623 15.3492 76.2391 15.3337C76.2089 15.3138 76.1774 15.2955 76.1459 15.2771C76.1199 15.2618 76.0939 15.2466 76.0671 15.2326C76.0376 15.2171 76.0074 15.2031 75.9771 15.1893C75.9458 15.1749 75.9148 15.1605 75.8827 15.1477C75.8552 15.1367 75.8274 15.127 75.7994 15.1172C75.7628 15.1044 75.7262 15.0918 75.6889 15.081C75.6627 15.0735 75.6361 15.067 75.6095 15.0605C75.5696 15.0508 75.5298 15.0416 75.4892 15.0343C75.4784 15.0323 75.4681 15.029 75.4571 15.0272C75.4386 15.0242 75.4203 15.0234 75.4021 15.0209C75.3655 15.0158 75.3287 15.0112 75.2916 15.0083C75.2542 15.0051 75.2172 15.0037 75.18 15.0026C75.1614 15.0022 75.1435 15 75.125 15H58.875C58.8575 15 58.8407 15.0022 58.8232 15.0026C58.7848 15.0037 58.7462 15.0051 58.7076 15.0085C58.6709 15.0116 58.6347 15.0163 58.5985 15.0211C58.5799 15.0238 58.5616 15.0244 58.5429 15.0274C58.5319 15.0293 58.5216 15.0325 58.5108 15.0345C58.4702 15.0418 58.4304 15.051 58.3905 15.0607C58.3639 15.0672 58.3373 15.0735 58.3111 15.0813C58.2738 15.092 58.237 15.1044 58.2006 15.1174C58.1726 15.1272 58.1446 15.1369 58.1173 15.1479C58.0853 15.1607 58.0542 15.1751 58.0231 15.1895C57.9928 15.2035 57.9626 15.2173 57.9331 15.2328C57.9063 15.2468 57.8803 15.2622 57.8541 15.2775C57.8226 15.2958 57.7913 15.314 57.7611 15.3339C57.7377 15.3494 57.7154 15.3658 57.6926 15.3821C57.6619 15.404 57.6315 15.426 57.6024 15.4495C57.5809 15.467 57.5602 15.4855 57.5392 15.5038C57.5114 15.5281 57.4836 15.5525 57.4572 15.5783C57.4361 15.599 57.4162 15.6205 57.3958 15.6423C57.3721 15.6677 57.3483 15.6927 57.326 15.7193C57.305 15.744 57.2855 15.7698 57.2656 15.7954C57.2463 15.8206 57.2268 15.8456 57.2086 15.8716C57.1887 15.9002 57.1702 15.9299 57.1517 15.9596C57.136 15.9847 57.12 16.0097 57.1056 16.0355C57.0879 16.0668 57.0721 16.0989 57.056 16.1312C57.043 16.1576 57.0296 16.1838 57.0176 16.2108C57.0034 16.2427 56.991 16.2754 56.9784 16.3083C56.9672 16.3376 56.9559 16.3668 56.9461 16.3967C56.936 16.4276 56.9274 16.459 56.9187 16.4905C56.9094 16.524 56.9002 16.5576 56.8927 16.5917C56.8864 16.6205 56.8813 16.6496 56.8763 16.6788C56.8695 16.7168 56.8633 16.7548 56.8588 16.7934C56.8555 16.8208 56.8537 16.8486 56.8515 16.8765C56.8484 16.9167 56.846 16.9567 56.8454 16.9973C56.8454 17.0087 56.8438 17.0199 56.8438 17.0312C56.8438 17.0505 56.846 17.0692 56.8466 17.0883C56.8476 17.1245 56.849 17.1606 56.8521 17.1972C56.8551 17.2348 56.8598 17.2717 56.8649 17.3087C56.8673 17.327 56.8681 17.3451 56.8712 17.3636L58.2884 25.9178L52.31 29.3691C51.8434 29.6384 51.503 30.0822 51.3636 30.6024C51.2243 31.1226 51.2972 31.6774 51.5666 32.144L54.2129 36.7269C53.3057 37.8969 52.5672 39.19 52.0043 40.5938H46.6875C45.5658 40.5938 44.6562 41.5033 44.6562 42.625V44.6562H34.9631C34.1246 42.2921 31.8669 40.5938 29.2188 40.5938C25.8587 40.5938 23.125 43.3274 23.125 46.6875C23.125 48.6373 24.0466 50.3748 25.476 51.491L23.6452 56.9847C22.0493 57.2831 20.5819 58.0517 19.4123 59.2236C17.8769 60.7578 17.0312 62.798 17.0312 64.9688C17.0312 67.1395 17.8769 69.1797 19.4123 70.7139C20.2059 71.5063 21.4917 71.5059 22.2851 70.7127C23.0779 69.9191 23.0773 68.6331 22.2839 67.8399C21.5165 67.0733 21.0938 66.0536 21.0938 64.9688C21.0938 63.8837 21.5165 62.8642 22.2855 62.0953C23.0494 61.33 24.0665 60.9083 25.1495 60.9065C25.1518 60.9065 25.154 60.9067 25.1565 60.9067C25.1587 60.9067 25.1609 60.9065 25.1632 60.9065C26.2462 60.9083 27.2633 61.33 28.0288 62.0974C28.796 62.8642 29.2188 63.8837 29.2188 64.9688C29.2188 66.0536 28.796 67.0733 28.0288 67.8401C27.2354 68.6331 27.2348 69.9191 28.0276 70.7129C28.4243 71.1098 28.9445 71.3085 29.4645 71.3085C29.9841 71.3085 30.5037 71.1102 30.9002 70.7141C32.4356 69.1797 33.2812 67.1395 33.2812 64.9688C33.2812 62.798 32.4356 60.7578 30.902 59.2256C30.0205 58.3424 28.9707 57.689 27.8251 57.2916L29.329 52.7786C31.9292 52.7321 34.1364 51.05 34.9631 48.719H44.6562V50.7502C44.6562 51.8719 45.5658 52.7815 46.6875 52.7815H52.0043C52.5672 54.1853 53.3057 55.4783 54.2129 56.6483L51.5666 61.2313C51.2972 61.6978 51.2241 62.2524 51.3636 62.7728C51.5032 63.2932 51.8434 63.7368 52.31 64.0061L59.3465 68.0686C60.3184 68.6297 61.5601 68.2965 62.1211 67.3254L64.7571 62.7606C66.3055 62.9982 67.6949 62.9982 69.2433 62.7606L71.8793 67.3254C72.2557 67.977 72.9384 68.3412 73.6404 68.3412C73.9849 68.3412 74.3342 68.2533 74.654 68.0686L81.6904 64.0061C82.157 63.7368 82.4974 63.293 82.6368 62.7728C82.7761 62.2526 82.7032 61.6978 82.4338 61.2313L79.7875 56.6483C80.6947 55.4783 81.4333 54.1853 81.9961 52.7815H87.3125C88.4342 52.7815 89.3438 51.8719 89.3438 50.7502V48.719H99.0369C99.8636 51.0502 102.071 52.7321 104.671 52.7786L106.175 57.2916C105.029 57.6888 103.98 58.3416 103.1 59.2238C101.564 60.7578 100.719 62.798 100.719 64.9688C100.719 67.1395 101.564 69.1797 103.1 70.7139C103.894 71.5063 105.179 71.5059 105.973 70.7127C106.765 69.9191 106.765 68.6331 105.971 67.8399C105.204 67.0733 104.781 66.0536 104.781 64.9688C104.781 63.8837 105.204 62.8642 105.973 62.0953C106.737 61.3302 107.754 60.9083 108.837 60.9065C108.839 60.9065 108.841 60.9067 108.844 60.9067C108.846 60.9067 108.848 60.9065 108.85 60.9065C109.934 60.9083 110.951 61.33 111.716 62.0974C112.484 62.8642 112.906 63.8837 112.906 64.9688C112.906 66.0536 112.484 67.0733 111.716 67.8401C110.923 68.6331 110.922 69.9191 111.715 70.7129C112.112 71.1098 112.632 71.3085 113.152 71.3085C113.672 71.3085 114.191 71.1102 114.588 70.7141C116.123 69.1797 116.969 67.1395 116.969 64.9688C116.969 62.798 116.123 60.7578 114.59 59.2256ZM29.2188 48.7188C28.0987 48.7188 27.1875 47.8075 27.1875 46.6875C27.1875 45.5675 28.0987 44.6562 29.2188 44.6562C30.3388 44.6562 31.25 45.5675 31.25 46.6875C31.25 47.8075 30.3388 48.7188 29.2188 48.7188ZM72.7298 19.0625L71.4488 26.794L69.2431 30.6146C67.6947 30.377 66.3057 30.377 64.7573 30.6146L62.5516 26.7953L61.2705 19.0625H72.7298ZM85.2812 48.7185H80.5566C79.6604 48.7185 78.87 49.306 78.6116 50.164C78.0484 52.034 77.1136 53.6701 75.8333 55.0268C75.2172 55.6796 75.1027 56.6593 75.5514 57.4367L77.8995 61.503L74.3814 63.5343L72.0355 59.4718C71.667 58.8336 70.9902 58.4562 70.2768 58.4562C70.1204 58.4562 69.9624 58.4742 69.8056 58.5116C68.7806 58.7562 67.8629 58.875 67 58.875C66.1371 58.875 65.2194 58.7562 64.1944 58.512C63.3214 58.3032 62.4136 58.6942 61.9643 59.4722L59.6184 63.5347L56.1003 61.5034L58.4484 57.4371C58.8971 56.6597 58.7828 55.68 58.1665 55.0272C56.8862 53.6703 55.9516 52.0344 55.3882 50.1644C55.1298 49.3062 54.3394 48.719 53.4432 48.719H48.7188V44.6562H53.4434C54.3396 44.6562 55.13 44.0688 55.3884 43.2108C55.9516 41.3408 56.8864 39.7047 58.1667 38.348C58.7828 37.6952 58.8973 36.7155 58.4486 35.9381L56.1005 31.8718L59.619 29.8403L61.9645 33.9028C62.4138 34.681 63.3214 35.0722 64.1946 34.8632C65.2194 34.6188 66.1371 34.5 67 34.5C67.8629 34.5 68.7806 34.6188 69.8056 34.863C70.68 35.0714 71.5864 34.681 72.0357 33.9026L74.3812 29.8401L77.8997 31.8716L75.5516 35.9379C75.1029 36.7153 75.2172 37.695 75.8335 38.3478C77.1138 39.7047 78.0484 41.3406 78.6118 43.2106C78.8702 44.0688 79.6606 44.656 80.5568 44.656H85.2812V48.7185ZM104.781 48.7188C103.661 48.7188 102.75 47.8075 102.75 46.6875C102.75 45.5675 103.661 44.6562 104.781 44.6562C105.901 44.6562 106.812 45.5675 106.812 46.6875C106.812 47.8075 105.901 48.7188 104.781 48.7188Z" fill="#80C721"/>
<path d="M106.812 90.71V79.1875C106.812 78.0658 105.903 77.1562 104.781 77.1562H87.3125C86.1908 77.1562 85.2812 78.0658 85.2812 79.1875V90.5625H77.1562V79.1875C77.1562 78.0658 76.2467 77.1562 75.125 77.1562H58.875C57.7533 77.1562 56.8438 78.0658 56.8438 79.1875V90.5625H48.7188V79.1875C48.7188 78.0658 47.8092 77.1562 46.6875 77.1562H29.2188C28.0971 77.1562 27.1875 78.0658 27.1875 79.1875V90.7073C24.1611 91.1378 21.3659 92.5263 19.1632 94.727C16.4785 97.4139 15 100.985 15 104.781C15 112.621 21.3785 119 29.2188 119H104.781C108.578 119 112.149 117.521 114.837 114.836C117.521 112.149 119 108.578 119 104.781C119 97.6308 113.694 91.6988 106.812 90.71ZM89.3438 81.2188H102.75V90.5625H89.3438V81.2188ZM60.9062 81.2188H73.0938V90.5625H60.9062V81.2188ZM31.25 81.2188H44.6562V90.5625H31.25V81.2188ZM111.964 111.963C110.044 113.881 107.494 114.938 104.781 114.938H29.2188C23.6186 114.938 19.0625 110.381 19.0625 104.781C19.0625 102.069 20.119 99.5183 22.036 97.5998C23.9558 95.6814 26.5064 94.625 29.2188 94.625H104.781C110.381 94.625 114.938 99.1811 114.938 104.781C114.938 107.494 113.881 110.044 111.964 111.963Z" fill="#80C721"/>
<path d="M83.25 102.75H50.75C49.6283 102.75 48.7188 103.66 48.7188 104.781C48.7188 105.903 49.6283 106.812 50.75 106.812H83.25C84.3717 106.812 85.2812 105.903 85.2812 104.781C85.2812 103.66 84.3717 102.75 83.25 102.75Z" fill="#80C721"/>
</g>
<defs>
<filter id="filter0_d" x="0" y="0" width="134" height="134" filterUnits="userSpaceOnUse" color-interpolation-filters="sRGB">
<feFlood flood-opacity="0" result="BackgroundImageFix"/>
<feColorMatrix in="SourceAlpha" type="matrix" values="0 0 0 0 0 0 0 0 0 0 0 0 0 0 0 0 0 0 127 0"/>
<feOffset/>
<feGaussianBlur stdDeviation="7.5"/>
<feColorMatrix type="matrix" values="0 0 0 0 0.501961 0 0 0 0 0.780392 0 0 0 0 0.129412 0 0 0 0.19 0"/>
<feBlend mode="normal" in2="BackgroundImageFix" result="effect1_dropShadow"/>
<feBlend mode="normal" in="SourceGraphic" in2="effect1_dropShadow" result="shape"/>
</filter>
</defs>
</svg>
