<svg width="134" height="39" viewBox="0 0 134 39" fill="none" xmlns="http://www.w3.org/2000/svg">
<g clip-path="url(#clip0)">
<path d="M111.302 0V5.89062H110.365V5.48438C110.157 5.6875 110.053 5.78906 109.741 5.89062C109.532 5.99219 109.22 5.99219 108.908 5.99219C108.491 5.99219 108.179 5.89062 107.866 5.6875C107.554 5.48438 107.346 5.28125 107.138 4.97656C106.929 4.67188 106.825 4.26562 106.825 3.85938C106.825 3.45312 106.929 3.04688 107.138 2.74219C107.346 2.4375 107.554 2.23438 107.866 2.03125C108.179 1.82812 108.595 1.72656 108.908 1.72656C109.22 1.72656 109.428 1.72656 109.636 1.82812C109.845 1.92969 110.053 2.03125 110.261 2.23438V0H111.302ZM109.741 5.07812C109.949 4.97656 110.053 4.875 110.157 4.67188C110.261 4.46875 110.365 4.26562 110.365 3.96094C110.365 3.75781 110.261 3.45312 110.157 3.25C110.053 3.04688 109.949 2.94531 109.741 2.84375C109.532 2.74219 109.324 2.64062 109.116 2.64062C108.908 2.64062 108.699 2.74219 108.491 2.84375C108.283 2.94531 108.179 3.04688 108.075 3.25C107.97 3.45312 107.866 3.65625 107.866 3.96094C107.866 4.26562 107.97 4.46875 108.075 4.67188C108.179 4.875 108.283 4.97656 108.491 5.07812C108.699 5.17969 108.908 5.28125 109.116 5.28125C109.324 5.17969 109.532 5.17969 109.741 5.07812Z" fill="#95B5A7" fill-opacity="0.5"/>
<path d="M116.404 4.26562H113.176C113.281 4.57031 113.385 4.77344 113.593 4.97656C113.801 5.17969 114.114 5.28125 114.53 5.28125C114.946 5.28125 115.363 5.17969 115.675 4.875L116.196 5.48437C115.988 5.6875 115.779 5.89062 115.467 5.99219C115.155 6.09375 114.842 6.19531 114.53 6.19531C114.114 6.19531 113.697 6.09375 113.281 5.89062C112.968 5.6875 112.656 5.48437 112.448 5.17969C112.239 4.875 112.135 4.46875 112.135 4.0625C112.135 3.65625 112.239 3.35156 112.448 2.94531C112.656 2.64062 112.864 2.33594 113.176 2.23438C113.489 2.03125 113.905 1.92969 114.322 1.92969C114.738 1.92969 115.051 2.03125 115.363 2.23438C115.675 2.4375 115.884 2.64062 116.092 2.94531C116.3 3.25 116.404 3.65625 116.404 4.0625C116.508 4.0625 116.508 4.0625 116.404 4.26562ZM113.593 2.84375C113.385 3.04687 113.281 3.25 113.176 3.55469H115.571C115.571 3.25 115.363 3.04687 115.155 2.84375C114.946 2.64062 114.634 2.53906 114.322 2.53906C114.009 2.64062 113.801 2.74219 113.593 2.84375Z" fill="#95B5A7" fill-opacity="0.5"/>
<path d="M117.758 5.89062C117.445 5.78906 117.133 5.6875 117.029 5.58594L117.445 4.875C117.653 4.97656 117.862 5.07812 118.174 5.17969C118.486 5.28125 118.695 5.28125 118.903 5.28125C119.528 5.28125 119.736 5.17969 119.736 4.875C119.736 4.77344 119.632 4.67188 119.528 4.57031C119.423 4.46875 119.111 4.46875 118.799 4.36719C118.486 4.26562 118.174 4.26562 117.966 4.16406C117.758 4.0625 117.549 3.96094 117.445 3.85938C117.237 3.65625 117.237 3.45312 117.237 3.14844C117.237 2.74219 117.445 2.4375 117.758 2.23438C118.07 2.03125 118.486 1.92969 119.111 1.92969C119.423 1.92969 119.632 1.92969 119.944 2.03125C120.256 2.13281 120.465 2.13281 120.673 2.33594L120.256 3.04688C119.944 2.84375 119.528 2.74219 119.111 2.74219C118.799 2.74219 118.591 2.74219 118.486 2.84375C118.382 2.94531 118.278 3.04687 118.278 3.14844C118.278 3.35156 118.382 3.45313 118.486 3.45313C118.695 3.55469 118.903 3.55469 119.215 3.65625C119.528 3.65625 119.84 3.75781 120.048 3.85938C120.256 3.96094 120.465 4.0625 120.569 4.16406C120.673 4.36719 120.777 4.57031 120.777 4.875C120.777 5.28125 120.569 5.58594 120.256 5.78906C119.944 5.99219 119.423 6.09375 118.903 6.09375C118.382 5.99219 118.07 5.99219 117.758 5.89062Z" fill="#95B5A7" fill-opacity="0.5"/>
<path d="M121.506 1.01562C121.402 0.914062 121.298 0.8125 121.298 0.609375C121.298 0.40625 121.402 0.304688 121.506 0.203125C121.61 0.101562 121.818 0 121.922 0C122.131 0 122.235 0.101562 122.339 0.203125C122.443 0.304688 122.547 0.40625 122.547 0.609375C122.547 0.8125 122.443 0.914062 122.339 1.01562C122.235 1.11719 122.026 1.21875 121.922 1.21875C121.714 1.21875 121.61 1.11719 121.506 1.01562ZM121.402 1.92969H122.339V5.99219H121.402V1.92969Z" fill="#95B5A7" fill-opacity="0.5"/>
<path d="M127.857 1.92969V5.38281C127.857 6.80469 127.128 7.51562 125.566 7.51562C125.15 7.51562 124.733 7.51562 124.421 7.41406C124.109 7.3125 123.796 7.21094 123.484 7.00781L123.901 6.29687C124.109 6.39844 124.317 6.60156 124.629 6.60156C124.942 6.70312 125.15 6.70312 125.462 6.70312C125.879 6.70312 126.295 6.60156 126.503 6.39844C126.712 6.19531 126.816 5.89062 126.816 5.48437V5.28125C126.608 5.48437 126.399 5.58594 126.191 5.6875C125.983 5.78906 125.671 5.78906 125.358 5.78906C124.942 5.78906 124.629 5.6875 124.317 5.58594C124.005 5.38281 123.796 5.17969 123.588 4.875C123.38 4.57031 123.276 4.26562 123.276 3.85937C123.276 3.45312 123.38 3.14844 123.588 2.84375C123.796 2.53906 124.005 2.33594 124.317 2.13281C124.629 1.92969 125.046 1.92969 125.358 1.92969C125.671 1.92969 125.983 1.92969 126.191 2.03125C126.399 2.13281 126.608 2.23438 126.816 2.4375V1.92969H127.857ZM126.503 4.67187C126.712 4.46875 126.816 4.16406 126.816 3.85937C126.816 3.55469 126.712 3.25 126.503 3.04687C126.295 2.84375 125.983 2.74219 125.566 2.74219C125.15 2.74219 124.838 2.84375 124.629 3.04687C124.421 3.25 124.317 3.55469 124.317 3.85937C124.317 4.16406 124.421 4.46875 124.629 4.67187C124.838 4.875 125.15 4.97656 125.566 4.97656C125.983 4.97656 126.295 4.875 126.503 4.67187Z" fill="#95B5A7" fill-opacity="0.5"/>
<path d="M132.751 2.33594C133.063 2.64062 133.271 3.04687 133.271 3.65625V5.99219H132.23V3.75781C132.23 3.35156 132.126 3.14844 132.022 2.94531C131.814 2.74219 131.605 2.64062 131.293 2.64062C130.981 2.64062 130.668 2.74219 130.46 2.94531C130.252 3.14844 130.148 3.45312 130.148 3.85938V5.89062H129.106V1.82812H130.044V2.33594C130.252 2.13281 130.46 2.03125 130.668 1.92969C130.876 1.82813 131.189 1.82812 131.501 1.82812C132.022 1.82812 132.438 2.03125 132.751 2.33594Z" fill="#95B5A7" fill-opacity="0.5"/>
<path d="M0 2.94531V0H6.24709C9.47475 0 11.8695 1.82813 11.8695 4.875V9.95312C11.8695 11.9844 10.9324 13.4062 9.16239 14.2188C11.1406 15.0312 12.0777 16.4531 12.0777 18.5859V24.5781C12.0777 27.625 9.68298 29.4531 6.55944 29.4531H0V26.4062H0.832945V2.94531H0ZM4.5812 12.7969H6.24709C7.28827 12.7969 8.12121 12.0859 8.12121 10.8672V4.77344C8.12121 3.65625 7.28827 2.94531 6.24709 2.94531H4.5812V12.7969ZM4.5812 15.7422V26.4062H6.3512C7.39239 26.4062 8.22533 25.6953 8.22533 24.4766V17.5703C8.22533 16.4531 7.39239 15.6406 6.3512 15.6406H4.5812V15.7422Z" fill="#95B5A7" fill-opacity="0.5"/>
<path d="M14.7848 15.4375V9.75C16.2424 8.73437 18.0124 8.22656 20.303 8.22656C23.4266 8.22656 25.8213 10.0547 25.8213 13.1016V26.4062H26.6542V29.3516H22.0731V27.625C21.0319 28.9453 19.6783 29.5547 18.0124 29.5547C16.1383 29.5547 14.6807 28.2344 14.6807 26.2031V21.9375C14.6807 18.9922 16.5548 17.4687 19.4701 17.0625L22.0731 16.7578V12.8984C22.0731 11.7812 21.3442 10.9687 20.303 10.9687C19.6783 10.9687 19.0536 11.1719 18.7413 11.375L18.533 11.4766V15.2344H14.7848V15.4375ZM22.0731 19.8047L20.303 20.0078C19.0536 20.1094 18.4289 20.8203 18.4289 21.9375V25.1875C18.4289 26 18.9495 26.6094 19.6783 26.6094C20.9278 26.6094 22.0731 25.6953 22.0731 24.1719V19.8047Z" fill="#95B5A7" fill-opacity="0.5"/>
<path d="M28.8408 15.4375V8.42969H39.7732V10.1562L33.2137 26.4063H36.962V22.3438H39.8773V29.3516H28.8408V27.625L35.5043 11.2734H31.6519V15.3359H28.8408V15.4375Z" fill="#95B5A7" fill-opacity="0.5"/>
<path d="M42.272 29.3516V26.4062H43.1049V11.375H42.272V8.42969H46.8532V26.4062H47.6861V29.3516H42.272ZM43.209 4.57031V0H46.9573V4.57031H43.209Z" fill="#95B5A7" fill-opacity="0.5"/>
<path d="M49.9767 2.94531V0H54.5579V26.4062H55.3908V29.3516H49.9767V26.4062H50.8096V2.94531H49.9767Z" fill="#95B5A7" fill-opacity="0.5"/>
<path d="M69.0303 20.0078H61.6379V24.6797C61.6379 25.8984 62.3667 26.6094 63.4079 26.6094C64.4491 26.6094 65.282 25.8984 65.282 24.6797V22.3438H69.0303V24.7812C69.0303 27.8281 66.6356 29.6562 63.4079 29.6562C60.2844 29.6562 57.8896 27.8281 57.8896 24.7812V13C57.8896 9.95313 60.2844 8.125 63.4079 8.125C66.5315 8.125 69.0303 9.95313 69.0303 13V20.0078ZM61.6379 17.1641H65.282V13.1016C65.282 11.8828 64.5532 11.1719 63.4079 11.1719C62.3667 11.1719 61.6379 11.8828 61.6379 13.1016V17.1641Z" fill="#95B5A7" fill-opacity="0.5"/>
<path d="M79.0256 11.375V8.42969H84.4398V11.375H83.3986L79.9627 29.4531H75.0691L71.6332 11.375H70.592V8.42969H74.965L77.4638 26.3047H77.568L79.7544 11.2734H79.0256V11.375Z" fill="#95B5A7" fill-opacity="0.5"/>
<path d="M93.2898 11.6797C92.7692 11.2734 92.2486 11.1719 91.6239 11.1719C90.6869 11.1719 89.958 11.8828 89.958 13V15.2344C89.958 16.3516 91.728 17.1641 93.4981 17.6719C95.3722 18.1797 97.1422 19.6016 97.1422 21.9375V24.7812C97.1422 27.7266 94.7475 29.5547 91.6239 29.5547C89.6457 29.5547 87.6674 28.8438 86.8345 28.3359L86.2098 27.9297V22.3438H89.958V26.1016C90.4786 26.5078 90.9992 26.6094 91.728 26.6094C92.7692 26.6094 93.4981 25.8984 93.4981 24.7812V21.9375C93.4981 19.2969 86.3139 20.3125 86.3139 15.1328V12.7969C86.3139 9.95313 88.6045 8.02344 91.728 8.02344C93.7063 8.02344 95.6845 8.73438 96.5175 9.24219L97.1422 9.64844V15.3359H93.3939V11.6797H93.2898Z" fill="#95B5A7" fill-opacity="0.5"/>
<path d="M99.6411 29.3516V26.4062H100.474V2.94531H99.6411V0H104.222V17.1641H105.368L107.45 11.375H106.721V8.42969H112.135V11.375H111.094L108.075 18.5859L111.198 26.5078H112.239V29.4531H108.387L105.368 20.0078H104.222V26.4062H105.055V29.3516H99.6411Z" fill="#95B5A7" fill-opacity="0.5"/>
<path d="M121.298 11.375V8.42969H125.879V34.2266C125.879 37.2734 123.484 39.1016 120.361 39.1016C118.382 39.1016 116.3 38.4922 115.467 37.8828L114.842 37.4766V32.5H118.591V35.5469C119.111 35.9531 119.632 36.0547 120.361 36.0547C121.298 36.0547 122.131 35.3438 122.131 34.125V27.5234C121.089 28.8438 119.736 29.4531 118.174 29.4531C116.196 29.4531 114.738 28.1328 114.738 26V11.375H113.905V8.42969H118.486V25.1875C118.486 26.1016 119.111 26.6094 119.84 26.6094C121.193 26.6094 122.131 25.6953 122.131 24.1719V11.375H121.298Z" fill="#95B5A7" fill-opacity="0.5"/>
<path d="M128.482 29.3516V26.4063H129.419V11.375H128.482V8.42969H133.167V26.4063H134V29.3516H128.482Z" fill="#95B5A7" fill-opacity="0.5"/>
</g>
<defs>
<clipPath id="clip0">
<rect width="134" height="39" fill="white"/>
</clipPath>
</defs>
</svg>
