<svg width="16" height="16" viewBox="0 0 16 16" fill="none" xmlns="http://www.w3.org/2000/svg">
<path d="M0.334012 2.97362C2.52995 4.83334 6.38313 8.10516 7.51563 9.12531C7.66766 9.263 7.83072 9.333 8.00001 9.333C8.16894 9.333 8.33172 9.26366 8.48341 9.12663C9.61688 8.10547 13.4701 4.83334 15.666 2.97362C15.8027 2.85806 15.8236 2.65494 15.7129 2.51366C15.457 2.18719 15.0755 2 14.6667 2H1.33335C0.924511 2 0.542981 2.18719 0.287137 2.51369C0.17645 2.65494 0.197293 2.85806 0.334012 2.97362Z" fill="#80C721"/>
<path d="M15.8067 3.98142C15.6885 3.92642 15.5495 3.94561 15.4512 4.02961C13.0159 6.09405 9.90788 8.74024 8.93 9.62139C8.38116 10.1168 7.61944 10.1168 7.06931 9.62074C6.027 8.68161 2.53675 5.71449 0.548813 4.02958C0.449844 3.94558 0.310531 3.92705 0.193344 3.98139C0.0755312 4.03611 0 4.15396 0 4.28383V12.6666C0 13.402 0.597969 14 1.33334 14H14.6667C15.402 14 16 13.402 16 12.6666V4.28383C16 4.15396 15.9245 4.0358 15.8067 3.98142Z" fill="#80C721"/>
</svg>
