<svg width="39" height="39" viewBox="0 0 39 39" fill="none" xmlns="http://www.w3.org/2000/svg">
<path d="M32.914 36.9826H6.01758V0H26.8625L32.914 6.0518V36.9826Z" fill="#E3E4D8"/>
<path d="M26.8625 0V6.0518H32.914L26.8625 0Z" fill="#D0CEBD"/>
<path d="M6.01758 26.8964H32.914V38.9999H6.01758V26.8964Z" fill="#B53438"/>
<path d="M10.052 36.9827C9.68096 36.9827 9.37955 36.6816 9.37955 36.3105V29.5863C9.37955 29.2149 9.68096 28.9138 10.052 28.9138C10.4233 28.9138 10.7245 29.2149 10.7245 29.5863V36.3105C10.7245 36.6816 10.4233 36.9827 10.052 36.9827Z" fill="white"/>
<path d="M28.8796 30.2587H24.8451C24.4741 30.2587 24.1727 29.9573 24.1727 29.5863C24.1727 29.2149 24.4741 28.9138 24.8451 28.9138H28.8796C29.2509 28.9138 29.552 29.2149 29.552 29.5863C29.552 29.9573 29.2509 30.2587 28.8796 30.2587Z" fill="white"/>
<path d="M28.8796 33.6207H24.8451C24.4741 33.6207 24.1727 33.3195 24.1727 32.9482C24.1727 32.5772 24.4741 32.2758 24.8451 32.2758H28.8796C29.2509 32.2758 29.552 32.5772 29.552 32.9482C29.552 33.3195 29.2509 33.6207 28.8796 33.6207Z" fill="white"/>
<path d="M24.8451 36.9827C24.4741 36.9827 24.1727 36.6816 24.1727 36.3105V29.5863C24.1727 29.2149 24.4741 28.9138 24.8451 28.9138C25.2165 28.9138 25.5176 29.2149 25.5176 29.5863V36.3105C25.5176 36.6816 25.2165 36.9827 24.8451 36.9827Z" fill="white"/>
<path d="M18.9822 7.2467C18.9165 7.26813 18.0914 8.40922 19.0468 9.37475C19.683 7.97539 19.0114 7.23778 18.9822 7.2467ZM19.3893 12.8471C18.9096 14.4845 18.2771 16.2522 17.5972 17.8524C18.9971 17.316 20.5203 16.8473 21.9497 16.5159C21.0454 15.4783 20.1415 14.1825 19.3893 12.8471ZM24.3946 17.2023C24.9406 17.6171 25.0736 17.8269 25.4316 17.8269C25.5881 17.8269 26.0353 17.8203 26.2418 17.5353C26.3421 17.3966 26.381 17.3079 26.3956 17.2615C26.3138 17.2178 26.204 17.1312 25.6083 17.1312C25.2694 17.1312 24.8445 17.1458 24.3946 17.2023ZM15.2573 20.1427C13.8249 20.9368 13.2414 21.5899 13.1997 21.9583C13.1929 22.0196 13.1747 22.1797 13.4881 22.4162C13.5883 22.3847 14.1712 22.1222 15.2573 20.1427ZM13.4732 23.5344C13.2399 23.5344 13.0161 23.4597 12.8251 23.3187C12.1277 22.8009 12.0336 22.2258 12.078 21.8339C12.1997 20.7574 13.5485 19.6291 16.0883 18.48C17.0961 16.2987 18.0551 13.6109 18.6267 11.3656C17.9584 9.92819 17.308 8.06347 17.7813 6.96939C17.9474 6.58615 18.1554 6.29188 18.5413 6.16453C18.6945 6.11484 19.0804 6.05176 19.2224 6.05176C19.5741 6.05176 19.9118 6.4713 20.0742 6.74415C20.3768 7.25057 20.3783 7.84031 20.3304 8.40922C20.284 8.96176 20.19 9.51133 20.0817 10.0546C20.0025 10.454 19.913 10.8515 19.8175 11.2475C20.7205 13.089 21.9994 14.9659 23.2259 16.2508C24.1048 16.0942 24.8606 16.0148 25.4765 16.0148C26.5247 16.0148 27.1615 16.2561 27.4204 16.753C27.6358 17.1645 27.5468 17.6462 27.1588 18.1827C26.7857 18.6984 26.2721 18.9706 25.6717 18.9706C24.8558 18.9706 23.9078 18.4624 22.8495 17.4585C20.9484 17.8513 18.7287 18.5511 16.9342 19.3259C16.374 20.4997 15.8375 21.4453 15.3373 22.1392C14.6521 23.0913 14.0596 23.5344 13.4732 23.5344Z" fill="#B53438"/>
<path d="M12.0694 34.2932H10.052C9.68096 34.2932 9.37955 33.992 9.37955 33.6207V29.5863C9.37955 29.2149 9.68096 28.9138 10.052 28.9138H12.0694C13.5526 28.9138 14.7589 30.1201 14.7589 31.6036C14.7589 33.0869 13.5526 34.2932 12.0694 34.2932ZM10.7245 32.9483H12.0694C12.8109 32.9483 13.414 32.3451 13.414 31.6036C13.414 30.8619 12.8109 30.2587 12.0694 30.2587H10.7245V32.9483Z" fill="white"/>
<path d="M18.1212 36.9827H17.4487C17.0774 36.9827 16.7762 36.6816 16.7762 36.3105V29.5863C16.7762 29.2149 17.0774 28.9138 17.4487 28.9138H18.1212C20.3453 28.9138 22.1556 30.7232 22.1556 32.9483C22.1556 35.1733 20.3453 36.9827 18.1212 36.9827ZM18.1212 35.6381H18.1277H18.1212ZM18.1212 30.2587V35.6381C19.6044 35.6381 20.8107 34.4315 20.8107 32.9483C20.8107 31.465 19.6044 30.2587 18.1212 30.2587Z" fill="white"/>
</svg>
