<svg width="16" height="16" viewBox="0 0 16 16" fill="none" xmlns="http://www.w3.org/2000/svg">
<g clip-path="url(#clip0)">
<path d="M15.9655 12.3971C15.9202 12.2607 15.6323 12.0598 15.1019 11.7949C14.9583 11.7114 14.7535 11.5979 14.4886 11.454C14.2234 11.31 13.9828 11.1774 13.767 11.0561C13.5508 10.9349 13.3483 10.8175 13.159 10.7041C13.1287 10.6813 13.0341 10.6151 12.875 10.505C12.7157 10.3953 12.5814 10.3138 12.4714 10.2607C12.3616 10.2079 12.2536 10.1813 12.1475 10.1813C11.996 10.1813 11.8068 10.2893 11.5796 10.505C11.3524 10.7211 11.144 10.9558 10.9547 11.2098C10.7654 11.4637 10.5646 11.6983 10.3527 11.9142C10.1405 12.1302 9.96611 12.2382 9.82991 12.2382C9.76153 12.2382 9.67628 12.2191 9.57411 12.1815C9.47198 12.1436 9.39428 12.1112 9.34095 12.085C9.28809 12.0583 9.19739 12.0055 9.06851 11.9257C8.9394 11.8461 8.86759 11.8025 8.85247 11.7949C7.81465 11.219 6.92458 10.5599 6.18209 9.81776C5.43984 9.07515 4.78065 8.18516 4.20493 7.14722C4.19736 7.13206 4.1537 7.06006 4.07422 6.93134C3.99462 6.8025 3.94156 6.71172 3.91505 6.65854C3.88855 6.60557 3.85635 6.52787 3.81854 6.42562C3.78073 6.32337 3.76174 6.2382 3.76174 6.16994C3.76174 6.03366 3.86972 5.85933 4.08564 5.64719C4.30152 5.43517 4.53643 5.23433 4.79012 5.04508C5.04401 4.85583 5.27868 4.64743 5.49464 4.42024C5.71053 4.19294 5.81847 4.00364 5.81847 3.85216C5.81847 3.74617 5.79196 3.63811 5.73898 3.5283C5.68597 3.41825 5.60454 3.28396 5.49464 3.12479C5.38471 2.96571 5.31844 2.8711 5.29568 2.84065C5.18216 2.6514 5.06487 2.44877 4.94352 2.23285C4.82216 2.01697 4.6897 1.77633 4.5457 1.51121C4.40182 1.24622 4.28827 1.0416 4.20485 0.897676C3.93985 0.367484 3.73913 0.079483 3.60273 0.0341892C3.54968 0.0114627 3.47008 0 3.36413 0C3.15947 0 2.89248 0.0378111 2.56297 0.113672C2.23333 0.189414 1.97395 0.268857 1.78454 0.35232C1.40575 0.511326 1.00427 0.973418 0.579993 1.73844C0.193643 2.4504 0.000488281 3.15508 0.000488281 3.85196C0.000488281 4.05634 0.0137421 4.25519 0.0402497 4.44854C0.0667573 4.6417 0.114121 4.85953 0.18238 5.102C0.250519 5.34439 0.305485 5.52445 0.347037 5.6417C0.388629 5.75903 0.466282 5.96922 0.579954 6.27235C0.693467 6.5754 0.761726 6.76091 0.784452 6.82909C1.04957 7.57154 1.36396 8.23435 1.72754 8.81772C2.32575 9.78735 3.14211 10.7894 4.17615 11.8235C5.21022 12.8576 6.2121 13.6739 7.18182 14.2724C7.7651 14.6359 8.42815 14.9502 9.17048 15.2156C9.2387 15.2382 9.42422 15.3063 9.72714 15.4202C10.0302 15.5338 10.2405 15.6114 10.3578 15.6531C10.4752 15.6948 10.6553 15.7498 10.8975 15.8181C11.1402 15.8863 11.3578 15.9337 11.551 15.9604C11.7442 15.9865 11.9431 16 12.1475 16C12.8444 16 13.5491 15.8068 14.2612 15.4205C15.0261 14.9963 15.4881 14.5948 15.6472 14.2157C15.7308 14.0265 15.8101 13.767 15.8858 13.4374C15.9618 13.1079 15.9995 12.841 15.9995 12.6364C15.9998 12.53 15.9883 12.4506 15.9655 12.3971Z" fill="#80C721"/>
</g>
<defs>
<clipPath id="clip0">
<rect width="16" height="16" fill="white"/>
</clipPath>
</defs>
</svg>
